<svg width="161" height="140" viewBox="0 0 161 140" fill="none" xmlns="http://www.w3.org/2000/svg">
<g clip-path="url(#clip0_2041_262)">
<path d="M48.4325 43.239L44.9492 39.3539C44.9492 39.3539 44.8879 39.2991 44.854 39.2652L19.0203 11.0646C14.9368 6.51162 8.11376 6.31317 3.53333 10.3418C-0.829295 14.1801 -1.252 21.5549 2.82505 26.1015L28.7475 54.3892L29.5994 55.3362L32.155 58.1855C32.973 59.0987 34.3573 59.31 35.3253 58.5598C36.4095 57.7144 36.5321 56.1268 35.6319 55.1168L35.2769 54.7151L33.3957 52.616C33.1779 52.3708 33.1908 51.9884 33.436 51.7642C33.6748 51.5399 34.0491 51.5593 34.275 51.8045L36.1433 53.8842L36.4289 54.2052C37.2469 55.1184 38.6312 55.3298 39.5992 54.5795C40.6834 53.7341 40.806 52.1465 39.9057 51.1366L39.483 50.6654L37.6696 48.6406C37.4518 48.3954 37.4647 48.013 37.7099 47.7888C37.9551 47.5645 38.323 47.5839 38.5489 47.8291L40.3478 49.8329L40.7028 50.2347C41.5208 51.1479 42.905 51.3592 43.8731 50.609C44.9573 49.7636 45.0799 48.176 44.1796 47.166L43.6892 46.6207L41.9435 44.6717C41.7257 44.4264 41.7386 44.0441 41.9838 43.8198C42.2226 43.5955 42.5969 43.6149 42.8228 43.8601L44.5539 45.7898L44.9766 46.2673C45.7946 47.1805 47.1789 47.3919 48.147 46.6416C49.2312 45.7962 49.3538 44.2086 48.4535 43.1986V43.2116L48.4325 43.2325V43.239Z" fill="#FFCB04"/>
<path d="M41.474 43.4504C41.2352 43.6891 41.2352 44.0844 41.4675 44.3232L43.3358 46.2528L44.1877 45.3671L42.3339 43.4584C42.0951 43.2132 41.7144 43.2132 41.4756 43.452L41.474 43.4504Z" fill="white"/>
<path d="M33.2263 51.6562C32.9811 51.8885 32.9665 52.2838 33.1989 52.529L35.1624 54.6555L36.0352 53.7891L34.0927 51.6836C33.8604 51.4384 33.4796 51.4239 33.2344 51.6562H33.2279H33.2263Z" fill="white"/>
<path d="M37.3291 47.513C37.0904 47.7518 37.0839 48.1406 37.3082 48.3858L39.2233 50.4106L40.0816 49.5378L38.1794 47.5275C37.9471 47.2823 37.5599 47.2758 37.3211 47.5065L37.3275 47.513H37.3291Z" fill="white"/>
<path d="M18.2975 43.9199C19.5382 42.5776 19.5995 40.6205 18.4331 39.5444C17.2682 38.4666 15.3176 38.678 14.0769 40.0219C12.8362 41.3643 12.7749 43.3213 13.9414 44.3975C15.1062 45.4752 17.0568 45.2639 18.2975 43.9199Z" fill="white"/>
<path d="M22.6263 48.5488C23.867 47.2065 23.9283 45.2494 22.7618 44.1733C21.5969 43.0955 19.6463 43.3069 18.4056 44.6508C17.1649 45.9932 17.1036 47.9502 18.2701 49.0264C19.435 50.1041 21.3856 49.8928 22.6263 48.5488Z" fill="white"/>
<path d="M26.9469 53.1631C28.1876 51.8207 28.249 49.8637 27.0825 48.7875C25.9176 47.7098 23.967 47.9211 22.7263 49.2651C21.4856 50.6074 21.4243 52.5645 22.5908 53.6406C23.7556 54.7184 25.7062 54.507 26.9469 53.1631Z" fill="white"/>
<path d="M31.2757 57.7854C32.5164 56.443 32.5777 54.486 31.4112 53.4098C30.2463 52.3321 28.2957 52.5434 27.055 53.8874C25.8143 55.2298 25.753 57.1868 26.9195 58.2629C28.0844 59.3407 30.035 59.1293 31.2757 57.7854Z" fill="white"/>
<path d="M47.3355 42.0048L69.1679 19.8658C73.6742 15.4145 73.2305 7.54915 69.4003 3.51243C65.0441 -1.08253 57.8322 -1.17772 53.3341 3.27364L25.2642 31.4532C23.1442 33.5458 22.8376 36.9339 24.7318 38.9862C26.6533 41.0723 29.9801 41.0304 32.1211 38.9184L33.5893 37.4615C36.1949 34.8769 40.4091 34.9091 42.9744 37.5357L47.3419 42.0065H47.3355V42.0048Z" fill="white"/>
<path d="M95.6986 58.1469C91.8539 58.1469 88.4383 57.3967 85.46 55.8978C82.4817 54.399 80.1439 52.3403 78.453 49.7153C76.7622 47.0903 75.9168 44.091 75.9168 40.7109V13.4074C75.9168 13.3977 75.9248 13.3896 75.9345 13.3896H89.7162C89.7258 13.3896 89.7339 13.3977 89.7339 13.4074V40.1446C89.7339 41.3708 89.9856 42.4614 90.497 43.4101C91.002 44.3572 91.7103 45.1139 92.617 45.6592C93.5238 46.211 94.5531 46.4836 95.6906 46.4836C96.9167 46.4836 97.9945 46.211 98.9222 45.6592C99.8499 45.1074 100.592 44.3572 101.144 43.4101C101.689 42.4566 101.968 41.3724 101.968 40.1446V13.4074C101.968 13.3977 101.976 13.3896 101.986 13.3896H115.448C115.458 13.3896 115.466 13.3977 115.466 13.4074V40.7174C115.466 44.099 114.621 47.0967 112.93 49.7217C111.239 52.3467 108.908 54.4038 105.929 55.9043C102.951 57.4112 99.5353 58.1533 95.6906 58.1533H95.697V58.1469H95.6986Z" fill="white"/>
<path d="M114.532 57.0286L131.64 14.4124C131.776 14.0784 132.097 13.8606 132.458 13.8606H142.042C142.403 13.8606 142.723 14.0784 142.86 14.4124L160.317 58.2096C160.322 58.2226 160.312 58.2355 160.299 58.2355H146.774C146.764 58.2355 146.758 58.2306 146.755 58.2209L139.656 38.836C139.185 37.5275 138.789 36.4094 138.449 35.4753C138.115 34.5476 137.815 33.6683 137.563 32.8438C137.311 32.0194 137.058 31.1336 136.8 30.1785C136.616 29.4976 136.439 28.7264 136.255 27.8617C136.138 27.3099 136.555 26.792 137.121 26.792C137.687 26.792 138.095 27.3163 137.987 27.8617C137.803 28.728 137.626 29.5041 137.442 30.1785C137.19 31.132 136.924 32.0194 136.651 32.8438C136.379 33.6683 136.058 34.5476 135.704 35.4753C135.343 36.403 134.935 37.5275 134.464 38.836L127.365 58.2209C127.362 58.229 127.353 58.2355 127.345 58.2355H115.35C114.73 58.2355 114.3 57.6078 114.532 57.0222V57.0286ZM123.447 50.4153L126.91 42.3338C126.91 42.3338 126.918 42.3241 126.924 42.3241H147.508C147.518 42.3241 147.526 42.3306 147.529 42.3387L151.127 51.6205C151.132 51.6351 151.122 51.6496 151.108 51.6496H124.261C123.627 51.6496 123.204 51.0026 123.449 50.4234V50.4169L123.447 50.4153Z" fill="white"/>
<path d="M25.9741 122.282V88.3721C25.9741 88.3624 25.966 88.3528 25.9548 88.3528H11.3955C11.3858 88.3528 11.3761 88.3447 11.3761 88.3334V75.9393C11.3761 75.9296 11.3842 75.9199 11.3955 75.9199H55.5461C55.5557 75.9199 55.5654 75.928 55.5654 75.9393V88.3334C55.5654 88.3431 55.5574 88.3528 55.5461 88.3528H40.5883C40.5786 88.3528 40.5689 88.3608 40.5689 88.3721V123.201C40.5689 123.21 40.5608 123.22 40.5495 123.22H26.9163C26.3936 123.22 25.979 122.799 25.979 122.282H25.9725H25.9741Z" fill="white"/>
<path d="M59.8167 123.091V75.8314C59.8167 75.8217 59.8248 75.812 59.8361 75.812H74.3954C74.405 75.812 74.4147 75.8201 74.4147 75.8314V123.091C74.4147 123.101 74.4067 123.11 74.3954 123.11H59.8361C59.8264 123.11 59.8167 123.102 59.8167 123.091ZM65.2942 104.932L65.3571 93.1883C65.3571 93.1786 65.3652 93.1689 65.3765 93.1689H96.2198C96.2295 93.1689 96.2391 93.177 96.2391 93.1883V105.85C96.2391 105.86 96.2311 105.87 96.2198 105.87H66.2332C65.7104 105.87 65.2894 105.44 65.2958 104.926V104.934L65.2942 104.932ZM87.9995 123.091V75.8314C87.9995 75.8217 88.0076 75.812 88.0189 75.812H102.578C102.588 75.812 102.598 75.8201 102.598 75.8314V123.091C102.598 123.101 102.589 123.11 102.578 123.11H88.0189C88.0092 123.11 87.9995 123.102 87.9995 123.091Z" fill="white"/>
<path d="M132.158 123.786C128.46 123.786 125.059 123.176 121.958 121.963C118.849 120.742 116.145 119.035 113.849 116.826C111.554 114.617 109.78 112.002 108.546 108.987C107.304 105.971 106.686 102.68 106.686 99.1207C106.686 95.56 107.304 92.2186 108.546 89.2177C109.788 86.2249 111.554 83.616 113.849 81.4153C116.145 79.2066 118.848 77.4996 121.958 76.2783C125.067 75.0569 128.468 74.4551 132.158 74.4551C133.015 74.4551 133.981 74.5277 135.064 74.6584C136.147 74.7972 137.25 74.9714 138.376 75.1957C139.233 75.378 140.077 75.5668 140.912 75.7701C141.74 75.9733 142.613 76.075 143.513 76.075C144.683 76.075 145.678 75.7265 146.485 75.0295C147.298 74.3325 147.916 73.2935 148.345 71.9205C148.771 70.5556 148.988 68.8389 148.983 66.785C148.983 66.7689 148.996 66.7544 149.012 66.7544H159.257C159.257 68.6388 159.102 70.5168 158.786 72.3626C158.473 74.2083 157.892 75.8717 157.064 77.3609C156.228 78.8436 155.038 80.0278 153.482 80.9071C151.927 81.7864 149.886 82.2301 147.364 82.2301L149.188 81.1185C149.544 80.9007 150.015 80.9362 150.32 81.2346C151.759 82.6012 152.994 84.1258 154.018 85.8183C155.165 87.7076 156.059 89.7711 156.685 92.0008C157.318 94.2305 157.629 96.6071 157.629 99.1288C157.629 102.69 157.011 105.979 155.769 108.995C154.526 112.01 152.761 114.625 150.465 116.834C148.17 119.043 145.474 120.75 142.386 121.971C139.297 123.193 135.884 123.794 132.149 123.794L132.157 123.786H132.158ZM132.158 110.273C133.684 110.273 135.101 110.003 136.379 109.459C137.665 108.922 138.791 108.136 139.757 107.126C140.724 106.11 141.472 104.932 141.987 103.58C142.503 102.228 142.765 100.739 142.765 99.1191C142.765 97.4993 142.503 96.0101 141.987 94.6581C141.471 93.3061 140.722 92.1218 139.757 91.1118C138.784 90.0954 137.665 89.3177 136.379 88.7789C135.093 88.2416 133.683 87.9657 132.158 87.9657C130.632 87.9657 129.215 88.2352 127.938 88.7789C126.652 89.3242 125.526 90.1019 124.559 91.1118C123.586 92.1218 122.844 93.3061 122.329 94.6581C121.813 96.0101 121.552 97.4993 121.552 99.1191C121.552 100.739 121.813 102.228 122.329 103.58C122.846 104.932 123.594 106.116 124.559 107.126C125.526 108.136 126.652 108.921 127.938 109.459C129.223 110.005 130.625 110.273 132.158 110.273ZM132.158 139.13C129.636 139.13 127.662 138.541 126.243 137.371C124.827 136.201 124.115 134.53 124.115 132.373C124.115 130.39 124.835 128.769 126.281 127.505C127.72 126.24 129.68 125.616 132.158 125.616C134.636 125.616 136.655 126.205 138.073 127.375C139.489 128.544 140.201 130.216 140.201 132.373C140.201 134.356 139.481 135.977 138.036 137.24C136.597 138.505 134.636 139.13 132.158 139.13Z" fill="white"/>
</g>
<defs>
<clipPath id="clip0_2041_262">
<rect width="160.32" height="139.13" fill="white"/>
</clipPath>
</defs>
</svg>
