<svg width="285" height="234" viewBox="0 0 285 234" fill="none" xmlns="http://www.w3.org/2000/svg">
<path d="M81.7809 72.9983L75.8979 66.4357C75.8514 66.3835 75.7933 66.3428 75.7411 66.2906L32.1145 18.6858C25.2267 11.0024 13.7045 10.6655 5.96876 17.4662C-1.40107 23.9475 -2.1154 36.3931 4.77239 44.0766L48.5441 91.8381L49.9786 93.4352L54.2936 98.2439C55.67 99.7829 58.0163 100.143 59.6424 98.8769C61.4776 97.4482 61.6809 94.7709 60.1593 93.0693L59.5553 92.3956L56.3844 88.853C56.0127 88.4407 56.0417 87.796 56.4483 87.4185C56.8548 87.041 57.4878 87.0701 57.8595 87.4824L61.0072 90.996L61.495 91.5419C62.8714 93.0809 65.2177 93.441 66.8438 92.1749C68.679 90.7463 68.8823 88.069 67.3607 86.3674L66.6464 85.5717L63.5858 82.1569C63.2141 81.7445 63.2431 81.0999 63.6497 80.7224C64.0562 80.3449 64.6892 80.3739 65.0609 80.7863L68.0983 84.1721L68.7023 84.8458C70.0787 86.3848 72.4249 86.7449 74.051 85.4788C75.8862 84.0501 76.0895 81.3728 74.5679 79.6712L73.7374 78.7478L70.793 75.4607C70.4213 75.0484 70.4503 74.4037 70.8569 74.0262C71.2634 73.6488 71.8964 73.6778 72.2681 74.0901L75.1893 77.3482L75.9037 78.1496C77.2801 79.6886 79.6263 80.0487 81.2524 78.7827C83.0876 77.354 83.2909 74.6767 81.7693 72.9751L81.7809 72.9983Z" fill="#FFC20E"/>
<path d="M70.0264 73.3586C69.6257 73.7651 69.6198 74.4271 70.0148 74.8337L73.1683 78.0859L74.6028 76.5934L71.4725 73.3702C71.0717 72.9578 70.4271 72.9578 70.0206 73.3586H70.0264Z" fill="white"/>
<path d="M56.1053 87.2096C55.693 87.6045 55.6698 88.2666 56.0589 88.6847L59.3692 92.2738L60.8385 90.8161L57.5572 87.2561C57.1681 86.8379 56.5177 86.8147 56.1053 87.2096Z" fill="white"/>
<path d="M63.0282 80.2116C62.6216 80.6123 62.61 81.2744 62.9991 81.6867L66.234 85.1016L67.6858 83.6264L64.4801 80.2348C64.0851 79.8167 63.4347 79.805 63.0282 80.2058V80.2116Z" fill="white"/>
<path d="M30.8968 74.1542C32.9899 71.8915 33.0929 68.5829 31.1269 66.7643C29.1608 64.9456 25.8703 65.3056 23.7772 67.5683C21.6841 69.831 21.5811 73.1396 23.5471 74.9583C25.5132 76.7769 28.8037 76.4169 30.8968 74.1542Z" fill="white"/>
<path d="M38.1998 81.9611C40.2929 79.6983 40.3959 76.3897 38.4299 74.5711C36.4638 72.7524 33.1733 73.1124 31.0802 75.3751C28.9871 77.6378 28.8841 80.9464 30.8501 82.7651C32.8161 84.5837 36.1067 84.2238 38.1998 81.9611Z" fill="white"/>
<path d="M45.5062 89.7577C47.5993 87.495 47.7023 84.1864 45.7363 82.3678C43.7702 80.5491 40.4796 80.9091 38.3866 83.1718C36.2935 85.4345 36.1905 88.7431 38.1565 90.5618C40.1225 92.3804 43.4131 92.0205 45.5062 89.7577Z" fill="white"/>
<path d="M52.8075 97.5625C54.9006 95.2998 55.0036 91.9912 53.0375 90.1725C51.0715 88.3539 47.7809 88.7138 45.6878 90.9766C43.5947 93.2393 43.4917 96.5479 45.4578 98.3665C47.4238 100.185 50.7144 99.8252 52.8075 97.5625Z" fill="white"/>
<path d="M79.9284 70.9192L116.786 33.5393C124.388 26.0243 123.639 12.7423 117.181 5.93001C109.822 -1.82892 97.6556 -1.98573 90.0535 5.52929L42.6611 53.1015C39.0837 56.6383 38.561 62.353 41.761 65.8201C45.0074 69.3395 50.6233 69.2756 54.2356 65.704L55.6759 64.2811C60.6937 59.3214 68.6965 59.3969 73.6214 64.4495L79.9342 70.9192H79.9284Z" fill="white"/>
<path d="M165.857 101.674C158.931 101.674 152.785 100.323 147.413 97.6221C142.047 94.9208 137.841 91.2096 134.792 86.4885C131.75 81.7674 130.226 76.3647 130.226 70.2744V22.6419C130.226 21.7622 130.939 21.0558 131.812 21.0558H153.528C154.408 21.0558 155.114 21.7684 155.114 22.6419V69.2459C155.114 71.4578 155.573 73.4156 156.483 75.1256C157.394 76.8356 158.67 78.1925 160.306 79.1776C161.942 80.1689 163.788 80.6646 165.845 80.6646C168.051 80.6646 169.996 80.1689 171.669 79.1776C173.342 78.1863 174.674 76.8356 175.665 75.1256C176.65 73.4094 177.152 71.4516 177.152 69.2459V22.6419C177.152 21.7622 177.865 21.0558 178.738 21.0558H199.884C200.764 21.0558 201.47 21.7684 201.47 22.6419V70.2744C201.47 76.3647 199.946 81.7674 196.904 86.4885C193.862 91.2096 189.655 94.9208 184.29 97.6221C178.924 100.33 172.772 101.674 165.845 101.674H165.857Z" fill="white"/>
<path d="M202.982 99.6601L233.793 22.8956C234.035 22.2946 234.617 21.8981 235.268 21.8981H252.529C253.179 21.8981 253.762 22.2946 254.003 22.8956L284.598 99.6601C285.013 100.701 284.245 101.835 283.123 101.835H262.138C261.469 101.835 260.874 101.42 260.645 100.794L248.235 66.8911C247.393 64.5306 246.674 62.517 246.067 60.838C245.46 59.1651 244.927 57.5852 244.468 56.0983C244.016 54.6113 243.558 53.0128 243.099 51.3028C242.771 50.0761 242.442 48.682 242.12 47.1269C241.916 46.1356 242.659 45.2 243.675 45.2C244.685 45.2 245.435 46.1418 245.23 47.1269C244.902 48.6882 244.574 50.0822 244.251 51.3028C243.793 53.019 243.316 54.6175 242.826 56.0983C242.331 57.5852 241.761 59.1651 241.116 60.838C240.466 62.5108 239.729 64.5306 238.886 66.8911L226.476 100.794C226.247 101.42 225.652 101.835 224.983 101.835H204.463C203.341 101.835 202.573 100.701 202.988 99.6539L202.982 99.6601ZM219.041 87.752L224.878 74.1401C225.125 73.5577 225.702 73.1798 226.34 73.1798H261.321C261.977 73.1798 262.566 73.5825 262.801 74.1959L268.08 87.8078C268.483 88.8487 267.715 89.9701 266.599 89.9701H220.51C219.37 89.9701 218.601 88.8053 219.047 87.7582L219.041 87.752Z" fill="white"/>
<path d="M35.614 205.522V149.773C35.614 148.893 34.9015 148.187 34.0279 148.187H12.5351C11.6553 148.187 10.949 147.474 10.949 146.601V128.763C10.949 127.883 11.6615 127.177 12.5351 127.177H84.0395C84.9193 127.177 85.6256 127.89 85.6256 128.763V146.601C85.6256 147.48 84.9131 148.187 84.0395 148.187H61.8651C60.9853 148.187 60.279 148.899 60.279 149.773V205.522C60.279 206.401 59.5665 207.108 58.6929 207.108H37.2063C36.3265 207.108 35.6202 206.395 35.6202 205.522H35.614Z" fill="white"/>
<path d="M99.6484 205.334V128.569C99.6484 127.69 100.361 126.983 101.235 126.983H122.727C123.607 126.983 124.313 127.696 124.313 128.569V205.334C124.313 206.214 123.601 206.92 122.727 206.92H101.235C100.355 206.92 99.6484 206.208 99.6484 205.334ZM108.905 176.208L109.004 157.912C109.004 157.039 109.716 156.332 110.59 156.332H159.61C160.49 156.332 161.196 157.045 161.196 157.918V176.214C161.196 177.094 160.484 177.8 159.61 177.8H110.491C109.611 177.8 108.899 177.082 108.905 176.202V176.208ZM147.268 205.334V128.569C147.268 127.69 147.981 126.983 148.855 126.983H170.347C171.227 126.983 171.934 127.696 171.934 128.569V205.334C171.934 206.214 171.221 206.92 170.347 206.92H148.855C147.975 206.92 147.268 206.208 147.268 205.334Z" fill="white"/>
<path d="M228.738 208.066C222.492 208.066 216.749 207.038 211.495 204.981C206.241 202.924 201.675 200.031 197.79 196.301C193.906 192.571 190.919 188.153 188.825 183.054C186.731 177.955 185.684 172.398 185.684 166.382C185.684 160.366 186.731 154.715 188.825 149.653C190.919 144.592 193.906 140.193 197.79 136.463C201.669 132.733 206.241 129.84 211.495 127.783C216.749 125.726 222.492 124.697 228.738 124.697C230.181 124.697 231.823 124.815 233.645 125.044C235.472 125.273 237.337 125.577 239.239 125.955C240.683 126.259 242.114 126.581 243.521 126.928C244.927 127.268 246.395 127.442 247.92 127.442C249.896 127.442 251.575 126.853 252.944 125.67C254.313 124.493 255.361 122.739 256.085 120.416C256.699 118.446 257.052 116.06 257.145 113.241C257.176 112.374 257.864 111.68 258.731 111.68H272.907C273.799 111.68 274.53 112.411 274.505 113.303C274.431 115.949 274.171 118.57 273.731 121.159C273.198 124.282 272.225 127.095 270.819 129.61C269.406 132.12 267.393 134.121 264.766 135.602C262.139 137.089 258.694 137.832 254.431 137.832L257.51 135.949C258.118 135.577 258.917 135.645 259.431 136.141C261.86 138.452 263.948 141.029 265.676 143.885C267.616 147.082 269.121 150.564 270.187 154.337C271.252 158.104 271.785 162.119 271.785 166.382C271.785 172.398 270.738 177.955 268.644 183.054C266.55 188.153 263.564 192.571 259.679 196.301C255.794 200.031 251.247 202.924 246.03 204.981C240.813 207.038 235.045 208.066 228.731 208.066H228.738ZM228.738 185.229C231.321 185.229 233.707 184.771 235.875 183.86C238.044 182.949 239.946 181.629 241.588 179.919C243.223 178.203 244.481 176.208 245.354 173.922C246.228 171.636 246.668 169.126 246.668 166.388C246.668 163.649 246.228 161.134 245.354 158.848C244.481 156.562 243.223 154.567 241.588 152.857C239.946 151.14 238.05 149.827 235.875 148.916C233.707 148.005 231.321 147.547 228.738 147.547C226.154 147.547 223.769 148.005 221.6 148.916C219.432 149.833 217.523 151.147 215.888 152.857C214.246 154.567 212.994 156.568 212.121 158.848C211.247 161.134 210.807 163.643 210.807 166.388C210.807 169.133 211.247 171.642 212.121 173.922C212.994 176.208 214.252 178.203 215.888 179.919C217.523 181.629 219.426 182.949 221.6 183.86C223.769 184.777 226.148 185.229 228.738 185.229ZM228.738 233.989C224.475 233.989 221.142 232.998 218.744 231.021C216.346 229.039 215.144 226.226 215.144 222.57C215.144 219.219 216.359 216.48 218.8 214.349C221.235 212.217 224.543 211.152 228.738 211.152C232.932 211.152 236.334 212.143 238.731 214.12C241.129 216.102 242.331 218.915 242.331 222.57C242.331 225.922 241.11 228.661 238.676 230.792C236.241 232.923 232.926 233.989 228.738 233.989Z" fill="white"/>
</svg>
